<svg width="300" height="238" viewBox="0 0 300 238" fill="none" xmlns="http://www.w3.org/2000/svg">
<path d="M0.84375 9.5469C1.53802 8.56408 2.59189 7.89472 3.77664 7.6841C4.96136 7.47348 6.1814 7.73859 7.17188 8.4219L11.1094 11.1875L17.0156 2.7969C17.7099 1.81408 18.7638 1.14472 19.9485 0.934098C21.1333 0.723478 22.3533 0.98859 23.3438 1.6719C25.4062 3.12502 25.875 5.93752 24.4688 8.00002L18.5625 16.3906L53.7188 41.0938L71.9531 31.25C72.6964 30.8442 73.5387 30.6554 74.3841 30.7051C75.2294 30.7548 76.0438 31.0411 76.7344 31.5313L112.828 56.8438L137.578 74.2344C138.285 73.3189 139.317 72.7108 140.461 72.5362C141.604 72.3616 142.771 72.634 143.719 73.2969L226.5 131.422C229.688 133.672 231.094 137.563 230.344 141.172L245.062 160.578L259.031 160.531C260.25 160.531 261.422 161 262.266 161.891L298.688 198.875C299.531 199.766 300 200.938 300 202.156C299.953 203.375 299.438 204.547 298.547 205.391L265.266 235.906C264.422 236.656 263.344 237.078 262.172 237.078C261.984 237.078 261.797 237.078 261.609 237.031C260.297 236.891 259.125 236.141 258.375 235.016L211.547 164.609C211.5 164.609 211.406 164.656 211.359 164.656C209.649 164.967 207.885 164.754 206.297 164.047L204.703 165.828C199.965 171.137 196.601 177.527 194.906 184.438L190.078 204.125C189.562 206.188 187.734 207.594 185.672 207.594C185.391 207.594 185.109 207.547 184.828 207.5L163.406 203.422C161.062 202.953 159.422 200.75 159.75 198.359L164.812 160.109L143.25 144.969C114.141 168.688 80.2031 170.703 69.9375 170.703C68.25 170.703 67.2188 170.656 66.9375 170.656C64.5 170.516 62.625 168.5 62.6719 166.063L62.9062 133.813C62.9062 132.5 63.5156 131.234 64.5469 130.344C65.0482 129.924 65.635 129.618 66.2664 129.448C66.8979 129.278 67.5588 129.248 68.2031 129.359C98.4844 134.422 118.125 115.484 125.016 107.375L121.594 104.984C120.609 104.281 119.953 103.25 119.719 102.031C119.534 100.939 119.768 99.8173 120.375 98.8906L95.625 81.5469L9.75 21.2656L1.92188 15.875C-0.140625 14.4688 -0.609375 11.6094 0.84375 9.5469ZM263.016 225.641L288.938 201.922L257.156 169.625L242.859 169.672C241.453 169.672 240.094 169.016 239.25 167.891L225.422 149.656L218.812 159.078L263.016 225.641ZM209.438 155.703C209.531 155.75 209.625 155.75 209.719 155.75C209.953 155.469 210.141 155.234 210.469 155L220.922 140.094C221.062 139.766 221.203 139.438 221.438 139.156C221.438 139.063 221.344 138.969 221.25 138.875L142.219 83.375L130.406 100.203L183.844 137.703L209.438 155.703ZM182.203 197.844L186 182.375C188.062 174.031 192.141 166.25 197.906 159.875L198.562 159.172L182.391 147.781L174 159.734L169.266 195.359L182.203 197.844ZM168.469 151.719L174.891 142.531L169.031 138.406L162.609 147.594L168.469 151.719ZM155.156 142.391L161.578 133.203L157.781 130.531C155.391 133.437 152.84 136.207 150.141 138.828L155.156 142.391ZM71.8125 139.109L71.625 161.656C84.4688 161.281 123.188 157.297 150.281 125.281L132.328 112.672C125.109 121.391 104.25 142.109 71.8125 139.109ZM125.437 91.4844L132.328 81.6875L111.328 66.9688L104.438 76.7656L125.437 91.4844ZM96.9844 71.5156L103.875 61.7188L73.8281 40.625L62.0625 47L96.9844 71.5156Z" fill="#E7AF17" fill-opacity="0.3"/>
</svg>
